<svg id="Layer_2" enable-background="new 0 0 64 64" height="512" viewBox="0 0 64 64" width="512" xmlns="http://www.w3.org/2000/svg"><path d="m14 2h10v4h-10z" fill="#6e83b7"/><path d="m16 6h6v4h-6z" fill="#466089"/><circle cx="19" cy="25" fill="#6e83b7" r="17"/><circle cx="19" cy="25" fill="#edeff1" r="13"/><path d="m16.879 27.121c1.172 1.172 3.071 1.172 4.243 0 2.033-2.033 5.657-9.899 5.657-9.899s-7.867 3.624-9.899 5.657c-1.173 1.171-1.173 3.071-.001 4.242z" fill="#6e83b7"/><g fill="#98ca69"><path d="m4 27h8v2h-8z"/><path d="m6 32h6v2h-6z"/><path d="m4 37h8v2h-8z"/><path d="m6 42h6v2h-6z"/><path d="m2 42h2v2h-2z"/><path d="m4 47h8v2h-8z"/><path d="m2 32h2v2h-2z"/><path d="m8 25h50v26h-50z"/></g><circle cx="33" cy="38" fill="#75aa40" r="8"/><path d="m51.29 28.5c.567 1.471 1.739 2.643 3.21 3.21v12.58c-1.471.567-2.643 1.739-3.21 3.21h-36.58c-.567-1.471-1.739-2.643-3.21-3.21v-12.58c1.471-.567 2.643-1.739 3.21-3.21zm1.63-2h-39.84c0 1.977-1.603 3.58-3.58 3.58v15.84c1.977 0 3.58 1.603 3.58 3.58h39.84c0-1.977 1.603-3.58 3.58-3.58v-15.84c-1.977 0-3.58-1.603-3.58-3.58z" fill="#75aa40"/><path d="m34 37h-2c-.551 0-1-.449-1-1s.449-1 1-1h2c.552 0 1 .449 1 1h2c0-1.654-1.346-3-3-3v-1h-2v1c-1.654 0-3 1.346-3 3s1.346 3 3 3h2c.552 0 1 .449 1 1s-.448 1-1 1h-2c-.551 0-1-.449-1-1h-2c0 1.654 1.346 3 3 3v1h2v-1c1.654 0 3-1.346 3-3s-1.346-3-3-3z" fill="#98ca69"/><path d="m36 58h15v4l12-10-12-10v4h-15z" fill="#80d6fb"/><path d="m32 46h8v2h-8z" fill="#80d6fb"/><path d="m32 56h8v2h-8z" fill="#80d6fb"/><path d="m34 51h6v2h-6z" fill="#80d6fb"/><path d="m30 51h2v2h-2z" fill="#80d6fb"/></svg>